<svg xmlns="http://www.w3.org/2000/svg" width="476" height="442.028" viewBox="0 0 476 442.028">
  <g id="Group_176" data-name="Group 176" transform="translate(940 -2553)">
    <path id="Path_272" data-name="Path 272" d="M92.252,51.36c0,26.156-19.979,47.36-44.625,47.36S3,77.516,3,51.36,22.981,4,47.627,4,92.252,25.2,92.252,51.36Z" transform="translate(-853.752 2643.72)"/>
    <path id="Path_271" data-name="Path 271" d="M59.5,1C26.641,1,0,29.272,0,64.147V379.881c0,34.875,26.639,63.147,59.5,63.147h357c32.861,0,59.5-28.272,59.5-63.147V64.147C476,29.272,449.363,1,416.5,1H59.5Zm357,31.573c16.43,0,29.75,14.136,29.75,31.573V269.374L333.886,207.9a14.241,14.241,0,0,0-17.166,2.936L206.348,327.974l-79.135-55.948a14.237,14.237,0,0,0-18.742,1.958L29.752,348.307V64.147c0-17.438,13.32-31.573,29.75-31.573Z" transform="translate(-940.002 2552)"/>
  </g>
</svg>
