<svg xmlns="http://www.w3.org/2000/svg" width="674" height="238" viewBox="0 0 674 238">
  <g id="Group_170" data-name="Group 170" transform="translate(-2038 -1477)">
    <g id="Rectangle_11" data-name="Rectangle 11" transform="translate(2038 1477)" fill="rgba(0,0,0,0)" stroke="#fff" stroke-width="2">
      <rect width="674" height="238" rx="50" stroke="none"/>
      <rect x="1" y="1" width="672" height="236" rx="49" fill="none"/>
    </g>
    <text id="Zile_de_stand_data_" data-name="Zile de stand
*data*" transform="translate(2419 1540)" fill="#fff" font-size="42" font-family="SegoeUI-Bold, Segoe UI" font-weight="700"><tspan x="0.09" y="45">Zile de stand</tspan><tspan x="64.454" y="101">*data*</tspan></text>
    <g id="stall" transform="translate(2124.334 1526.754)">
      <path id="Path_207" data-name="Path 207" d="M141.349,31.373a2.279,2.279,0,0,0,2.317-2.24V11.215a2.279,2.279,0,0,0-2.317-2.24h-46.4a31.65,31.65,0,0,0-23.1-8.96,31.649,31.649,0,0,0-23.1,8.96H2.341a2.279,2.279,0,0,0-2.317,2.24V29.134a2.279,2.279,0,0,0,2.317,2.24h6.95V78.411H2.341a2.279,2.279,0,0,0-2.317,2.24v11.2a2.279,2.279,0,0,0,2.317,2.24H4.658v42.558a2.279,2.279,0,0,0,2.317,2.24H136.715a2.279,2.279,0,0,0,2.317-2.24V94.09h2.317a2.279,2.279,0,0,0,2.317-2.24v-11.2a2.279,2.279,0,0,0-2.317-2.24H134.4V31.373Zm-2.317-17.919V26.894H98.025a14.735,14.735,0,0,0,0-13.439Zm-27.8,64.956v-22.4a2.279,2.279,0,0,0-2.317-2.24H99.646a2.279,2.279,0,0,0-2.317,2.24v22.4H95.013v-22.4a2.279,2.279,0,0,0-2.317-2.24H83.429a2.279,2.279,0,0,0-2.317,2.24v22.4H62.577V53.772a2.279,2.279,0,0,0-2.317-2.24H34.776a2.279,2.279,0,0,0-2.317,2.24V78.411H23.192V31.373H48.744a31.658,31.658,0,0,0,23.1,8.96,31.659,31.659,0,0,0,23.1-8.96H120.5V78.411Zm-9.267,0V58.252H106.6V78.411Zm-16.218,0V58.252h4.634V78.411Zm-48.653,0v-4.48H57.944v4.48Zm0-13.439H57.944v4.48H37.092Zm20.851-4.48H37.092v-4.48H57.944Zm13.9-56c8.741,0,16.361,3.294,20.307,8.141a2,2,0,0,0,.139.182,11.813,11.813,0,0,1,2.722,7.356,11.807,11.807,0,0,1-2.722,7.355c-.055.054-.09.124-.141.182-3.944,4.847-11.564,8.143-20.3,8.143s-16.361-3.3-20.3-8.143c-.051-.058-.086-.128-.141-.182a11.808,11.808,0,0,1-2.723-7.355A11.814,11.814,0,0,1,51.4,12.818a2,2,0,0,0,.139-.182C55.483,7.789,63.1,4.495,71.845,4.495ZM4.657,13.454H45.665a14.735,14.735,0,0,0,0,13.439H4.657Zm9.267,17.919h4.634V78.411H13.924Zm108.89,103.034H20.875V107.529H122.814Zm11.584,0h-6.95V105.289a2.279,2.279,0,0,0-2.317-2.24H18.558a2.279,2.279,0,0,0-2.317,2.24v29.118H9.291V94.09H134.4Zm4.634-44.8H4.657v-6.72H139.032Zm-9.267-11.2h-4.634V31.373h4.634Zm0,0" fill="#fff"/>
      <path id="Path_208" data-name="Path 208" d="M219.607,54.45a11.206,11.206,0,1,0-11.584-11.2A11.4,11.4,0,0,0,219.607,54.45Zm0-17.919a6.723,6.723,0,1,1-6.95,6.72A6.837,6.837,0,0,1,219.607,36.531Zm0,0" transform="translate(-147.763 -23.076)" fill="#fff"/>
      <path id="Path_209" data-name="Path 209" d="M306.34,460.531h27.8a2.241,2.241,0,1,0,0-4.48h-27.8a2.241,2.241,0,1,0,0,4.48Zm0,0" transform="translate(-215.961 -328.363)" fill="#fff"/>
      <path id="Path_210" data-name="Path 210" d="M274.34,460.531h2.317a2.241,2.241,0,1,0,0-4.48H274.34a2.241,2.241,0,1,0,0,4.48Zm0,0" transform="translate(-193.228 -328.363)" fill="#fff"/>
    </g>
  </g>
</svg>
