<svg xmlns="http://www.w3.org/2000/svg" width="674" height="238" viewBox="0 0 674 238">
  <g id="im2" transform="translate(-2038 -1743)">
    <rect id="Rectangle_9" data-name="Rectangle 9" width="674" height="238" rx="50" transform="translate(2038 1743)" fill="#efa834"/>
    <text id="Workshops_" data-name="Workshops
" transform="translate(2345 1836)" font-size="42" font-family="Montserrat-Regular, Montserrat"><tspan x="8.543" y="41">Workshops</tspan></text>
    <g id="file-earmark-person" transform="translate(2135 1789)">
      <path id="Path_211" data-name="Path 211" d="M63.734,32.5c0,15.186-13.148,27.5-29.367,27.5S5,47.682,5,32.5,18.148,5,34.367,5,63.734,17.31,63.734,32.5Z" transform="translate(26.367 40.827)"/>
      <path id="Path_212" data-name="Path 212" d="M119.467,128.315V41.244L75.417,0H21.578C10.765,0,2,8.207,2,18.331V128.315c0,10.124,8.765,18.331,19.578,18.331H99.889C110.7,146.646,119.467,138.439,119.467,128.315ZM75.417,27.5c0,7.593,6.574,13.748,14.683,13.748h19.578V126.07s-9.789-16.085-48.945-16.085S11.789,126.07,11.789,126.07V18.331c0-5.062,4.383-9.165,9.789-9.165H75.417Z" transform="translate(0)"/>
    </g>
  </g>
</svg>
