<svg xmlns="http://www.w3.org/2000/svg" width="674" height="238" viewBox="0 0 674 238">
  <g id="Group_172" data-name="Group 172" transform="translate(-2038 -1743)">
    <g id="Group_171" data-name="Group 171">
      <g id="Rectangle_9" data-name="Rectangle 9" transform="translate(2038 1743)" fill="rgba(182,150,107,0)" stroke="#fff" stroke-width="2">
        <rect width="674" height="238" rx="50" stroke="none"/>
        <rect x="1" y="1" width="672" height="236" rx="49" fill="none"/>
      </g>
      <text id="Workshop_de_CV-uri_data_" data-name="Workshop de CV-uri
*data*" transform="translate(2419 1776)" fill="#fff" font-size="42" font-family="SegoeUI-Bold, Segoe UI" font-weight="700"><tspan x="25.284" y="45">Workshop </tspan><tspan x="33.63" y="101">de CV-uri</tspan><tspan x="64.454" y="157">*data*</tspan></text>
      <g id="file-earmark-person" transform="translate(2135 1789)">
        <path id="Path_211" data-name="Path 211" d="M63.734,32.5c0,15.186-13.148,27.5-29.367,27.5S5,47.682,5,32.5,18.148,5,34.367,5,63.734,17.31,63.734,32.5Z" transform="translate(26.367 40.827)" fill="#fff"/>
        <path id="Path_212" data-name="Path 212" d="M119.467,128.315V41.244L75.417,0H21.578C10.765,0,2,8.207,2,18.331V128.315c0,10.124,8.765,18.331,19.578,18.331H99.889C110.7,146.646,119.467,138.439,119.467,128.315ZM75.417,27.5c0,7.593,6.574,13.748,14.683,13.748h19.578V126.07s-9.789-16.085-48.945-16.085S11.789,126.07,11.789,126.07V18.331c0-5.062,4.383-9.165,9.789-9.165H75.417Z" transform="translate(0)" fill="#fff"/>
      </g>
    </g>
  </g>
</svg>
