<svg xmlns="http://www.w3.org/2000/svg" width="674" height="238" viewBox="0 0 674 238">
  <g id="im3" transform="translate(-2038 -2003)">
    <rect id="Rectangle_10" data-name="Rectangle 10" width="674" height="238" rx="50" transform="translate(2038 2003)" fill="#efa834"/>
    <text id="Company_presentations_" data-name="Company presentations
" transform="translate(2332 2070)" font-size="42" font-family="Montserrat-Regular, Montserrat"><tspan x="34.461" y="41">Company </tspan><tspan x="1.281" y="93">presentation</tspan></text>
    <g id="building" transform="translate(2137 2053.5)">
      <path id="Path_213" data-name="Path 213" d="M115.611.643a4.4,4.4,0,0,1,1.856,3.651V133.142a4.118,4.118,0,0,1-3.916,4.295H90.058a4.118,4.118,0,0,1-3.916-4.295V120.257H78.312v12.885a4.118,4.118,0,0,1-3.916,4.295H3.916A4.118,4.118,0,0,1,0,133.142V85.9a4.28,4.28,0,0,1,2.678-4.072l44.309-16.2V38.653a4.356,4.356,0,0,1,2.161-3.84L111.8.454a3.618,3.618,0,0,1,3.814.189ZM46.987,74.679,7.831,88.99v39.857H46.987Zm7.831,54.168H70.48V115.962a4.118,4.118,0,0,1,3.916-4.295H90.058a4.118,4.118,0,0,1,3.916,4.295v12.885h15.662V11.243L54.818,41.308Z" transform="translate(0 0)" fill-rule="evenodd"/>
      <path id="Path_214" data-name="Path 214" d="M2,71.719H9.831v8.59H2Zm15.662,0h7.831v8.59H17.662ZM2,88.9H9.831v8.59H2Zm15.662,0h7.831v8.59H17.662ZM48.987,54.539h7.831v8.59H48.987Zm15.662,0H72.48v8.59H64.649ZM48.987,71.719h7.831v8.59H48.987Zm15.662,0H72.48v8.59H64.649Zm15.662-17.18h7.831v8.59H80.312Zm0,17.18h7.831v8.59H80.312ZM48.987,37.359h7.831v8.59H48.987Zm15.662,0H72.48v8.59H64.649Zm15.662,0h7.831v8.59H80.312ZM48.987,20.18h7.831v8.59H48.987Zm15.662,0H72.48v8.59H64.649Zm15.662,0h7.831v8.59H80.312Zm0-17.18h7.831v8.59H80.312Z" transform="translate(13.662 22.769)"/>
    </g>
  </g>
</svg>
