<svg xmlns="http://www.w3.org/2000/svg" width="674" height="238" viewBox="0 0 674 238">
  <g id="im4" transform="translate(-2038 -2258)">
    <g id="im4-2" data-name="im4">
      <g id="Group_174" data-name="Group 174">
        <path id="Path_273" data-name="Path 273" d="M50,0H624a50,50,0,0,1,50,50V188a50,50,0,0,1-50,50H50A50,50,0,0,1,0,188V50A50,50,0,0,1,50,0Z" transform="translate(2038 2258)" fill="#efa834"/>
        <text id="Training_de_interviuri_data_" data-name="Training de interviuri
*data*" transform="translate(2419 2291)" font-size="42" font-family="Montserrat-Regular, Montserrat"><tspan x="8.039" y="41">Training de </tspan><tspan x="31.811" y="93">interviuri</tspan><tspan x="60.938" y="145">*data*</tspan></text>
        <g id="visitor" transform="translate(2137 2316.309)">
          <g id="Group_9" data-name="Group 9" transform="translate(0 68.828)">
            <g id="Group_8" data-name="Group 8" transform="translate(0)">
              <path id="Path_215" data-name="Path 215" d="M30.618,300.118a10.1,10.1,0,0,0-4.454-1.7,14.2,14.2,0,0,0,5.161-10.221c0-13.385-7.453-16.195-13.7-16.195s-13.7,2.81-13.7,16.195a14.2,14.2,0,0,0,5.163,10.221A10.578,10.578,0,0,0,0,309.043v13.563a1.992,1.992,0,0,0,1.958,2.024H33.282a1.992,1.992,0,0,0,1.958-2.024V309.043A10.812,10.812,0,0,0,30.618,300.118ZM7.933,286.051c.531-6.785,3.618-10,9.687-10,5.556,0,8.614,2.717,9.489,8.385l-6.523-4.049a1.922,1.922,0,0,0-2.686.695,2.047,2.047,0,0,0-.178.4C16.731,284.551,11.383,285.713,7.933,286.051Zm.17,4.061c3.352-.285,9.4-1.334,12.217-5.172l7,4.342c-.785,4.958-6.692,9.032-9.7,9.032A12.448,12.448,0,0,1,8.1,290.112ZM19.237,309.97l-1.617,1.676L16,309.972l1.617-4.184Zm12.087,10.611H3.916V309.043a6.573,6.573,0,0,1,6.461-6.68h4.346l-2.837,7.346a2.075,2.075,0,0,0,.435,2.182l3.916,4.049a1.913,1.913,0,0,0,2.768,0l3.916-4.049a2.075,2.075,0,0,0,.435-2.182l-2.843-7.346h4.352a6.573,6.573,0,0,1,6.461,6.68Z" transform="translate(0 -271.998)"/>
            </g>
          </g>
          <g id="Group_11" data-name="Group 11" transform="translate(41.114 68.828)">
            <g id="Group_10" data-name="Group 10">
              <path id="Path_216" data-name="Path 216" d="M198.618,300.118a10.1,10.1,0,0,0-4.454-1.7,14.2,14.2,0,0,0,5.161-10.221c0-13.385-7.453-16.195-13.7-16.195s-13.7,2.81-13.7,16.195a14.2,14.2,0,0,0,5.163,10.221A10.578,10.578,0,0,0,168,309.043v13.563a1.992,1.992,0,0,0,1.958,2.024h31.325a1.992,1.992,0,0,0,1.958-2.024V309.043A10.812,10.812,0,0,0,198.618,300.118Zm-22.685-14.067c.531-6.785,3.618-10,9.687-10,5.556,0,8.614,2.717,9.489,8.385l-6.523-4.049a1.922,1.922,0,0,0-2.686.695,2.047,2.047,0,0,0-.178.4C184.731,284.551,179.383,285.713,175.933,286.051Zm.17,4.061c3.352-.285,9.4-1.334,12.217-5.172l7,4.342c-.785,4.958-6.692,9.032-9.7,9.032A12.448,12.448,0,0,1,176.1,290.112Zm11.134,19.859-1.617,1.676L184,309.972l1.617-4.184Zm12.087,10.611H171.916V309.043a6.573,6.573,0,0,1,6.461-6.68h4.346l-2.843,7.346a2.075,2.075,0,0,0,.435,2.182l3.916,4.049a1.913,1.913,0,0,0,2.768,0l3.916-4.049a2.075,2.075,0,0,0,.435-2.182l-2.837-7.346h4.352a6.573,6.573,0,0,1,6.461,6.68Z" transform="translate(-168 -271.998)"/>
            </g>
          </g>
          <g id="Group_13" data-name="Group 13" transform="translate(82.227 68.828)">
            <g id="Group_12" data-name="Group 12">
              <path id="Path_217" data-name="Path 217" d="M366.618,300.118a10.1,10.1,0,0,0-4.454-1.7,14.2,14.2,0,0,0,5.161-10.221c0-13.385-7.453-16.195-13.7-16.195s-13.7,2.81-13.7,16.195a14.2,14.2,0,0,0,5.163,10.221A10.578,10.578,0,0,0,336,309.043v13.563a1.992,1.992,0,0,0,1.958,2.024h31.325a1.992,1.992,0,0,0,1.958-2.024V309.043A10.812,10.812,0,0,0,366.618,300.118Zm-22.685-14.067c.531-6.785,3.618-10,9.687-10,5.556,0,8.614,2.717,9.489,8.385l-6.523-4.049a1.922,1.922,0,0,0-2.686.695,2.044,2.044,0,0,0-.178.4C352.731,284.551,347.383,285.713,343.933,286.051Zm.17,4.061c3.352-.285,9.4-1.334,12.217-5.172l7,4.342c-.785,4.958-6.692,9.032-9.7,9.032A12.448,12.448,0,0,1,344.1,290.112Zm11.134,19.859-1.617,1.676L352,309.972l1.617-4.184Zm12.087,10.611H339.916V309.043a6.573,6.573,0,0,1,6.461-6.68h4.346l-2.843,7.346a2.075,2.075,0,0,0,.435,2.182l3.916,4.049a1.913,1.913,0,0,0,2.768,0l3.916-4.049a2.075,2.075,0,0,0,.435-2.182l-2.837-7.346h4.352a6.573,6.573,0,0,1,6.461,6.68Z" transform="translate(-336 -271.998)"/>
            </g>
          </g>
          <g id="Group_15" data-name="Group 15" transform="translate(27.408 16.188)">
            <g id="Group_14" data-name="Group 14">
              <path id="Path_218" data-name="Path 218" d="M174.646,108.509V82.193a1.992,1.992,0,0,0-1.958-2.024h-17.62V74.1a1.992,1.992,0,0,0-1.958-2.024H141.217a15.525,15.525,0,0,0-14.037-8.1A16.408,16.408,0,0,0,112,80.764a28.426,28.426,0,0,0,4.2,14.919l7.894,12.826h-2.306v4.049H176.6v-4.049Zm-41.114,0h-2.306l2.306-3.747Zm-5.873-1.745L119.5,93.509a24.275,24.275,0,0,1-3.591-12.745A12.39,12.39,0,0,1,127.3,68.023h.362a11.951,11.951,0,0,1,11.747,12.146v.6a24.276,24.276,0,0,1-3.591,12.753Zm23.493,1.745h-13.7V98.4l1.672-2.715a28.426,28.426,0,0,0,4.2-14.919v-.6a16.8,16.8,0,0,0-.509-4.049h8.34Zm13.7,0h-3.916v-6.073h3.916Zm5.873-22.267h-3.916v4.049h3.916v2.024h-3.916v4.049h3.916v12.146h-1.958v-8.1a1.992,1.992,0,0,0-1.958-2.024h-7.831a1.992,1.992,0,0,0-1.958,2.024v8.1h-1.958V96.364h3.916V92.315h-3.916V90.291h3.916V86.242h-3.916V84.218H170.73Z" transform="translate(-111.996 -63.967)"/>
            </g>
          </g>
          <g id="Group_17" data-name="Group 17" transform="translate(60.204 30.756)">
            <g id="Group_16" data-name="Group 16" transform="translate(0 0)">
              <rect id="Rectangle_12" data-name="Rectangle 12" width="4" height="3" transform="translate(-0.204 -0.064)"/>
            </g>
          </g>
          <g id="Group_19" data-name="Group 19" transform="translate(76.147 37.828)">
            <g id="Group_18" data-name="Group 18" transform="translate(0 0)">
              <rect id="Rectangle_13" data-name="Rectangle 13" width="4" height="5" transform="translate(-0.147 -0.137)"/>
            </g>
          </g>
          <g id="Group_21" data-name="Group 21" transform="translate(76.147 44.901)">
            <g id="Group_20" data-name="Group 20" transform="translate(0 0)">
              <rect id="Rectangle_14" data-name="Rectangle 14" width="4" height="4" transform="translate(-0.147 -0.21)"/>
            </g>
          </g>
          <g id="Group_23" data-name="Group 23" transform="translate(60.204 35.808)">
            <g id="Group_22" data-name="Group 22" transform="translate(0 0)">
              <rect id="Rectangle_15" data-name="Rectangle 15" width="4" height="5" transform="translate(-0.204 -0.116)"/>
            </g>
          </g>
          <g id="Group_25" data-name="Group 25" transform="translate(60.204 42.881)">
            <g id="Group_24" data-name="Group 24" transform="translate(0 0)">
              <rect id="Rectangle_16" data-name="Rectangle 16" width="4" height="4" transform="translate(-0.204 -0.189)"/>
            </g>
          </g>
          <g id="Group_27" data-name="Group 27" transform="translate(55.222 48.943)">
            <g id="Group_26" data-name="Group 26" transform="translate(0 0)">
              <rect id="Rectangle_17" data-name="Rectangle 17" width="4" height="4" transform="translate(-0.222 -0.252)"/>
            </g>
          </g>
          <g id="Group_29" data-name="Group 29" transform="translate(60.204 48.943)">
            <g id="Group_28" data-name="Group 28" transform="translate(0 0)">
              <rect id="Rectangle_18" data-name="Rectangle 18" width="4" height="4" transform="translate(-0.204 -0.252)"/>
            </g>
          </g>
          <g id="Group_31" data-name="Group 31" transform="translate(55.222 53.995)">
            <g id="Group_30" data-name="Group 30" transform="translate(0 0)">
              <rect id="Rectangle_19" data-name="Rectangle 19" width="4" height="4" transform="translate(-0.222 -0.304)"/>
            </g>
          </g>
          <g id="Group_33" data-name="Group 33" transform="translate(60.204 53.995)">
            <g id="Group_32" data-name="Group 32" transform="translate(0 0)">
              <rect id="Rectangle_20" data-name="Rectangle 20" width="4" height="4" transform="translate(-0.204 -0.304)"/>
            </g>
          </g>
          <g id="Group_35" data-name="Group 35" transform="translate(104.804 42.238)">
            <g id="Group_34" data-name="Group 34">
              <path id="Path_219" data-name="Path 219" d="M432.1,166.918l-3.839.8c.241,1.237.437,2.5.587,3.759l3.882-.478C432.567,169.635,432.356,168.262,432.1,166.918Z" transform="translate(-428.256 -166.918)"/>
            </g>
          </g>
          <g id="Group_37" data-name="Group 37" transform="translate(8.184 42.335)">
            <g id="Group_36" data-name="Group 36">
              <path id="Path_220" data-name="Path 220" d="M34.066,167.3c-.264,1.352-.472,2.723-.626,4.075l3.888.474c.141-1.247.337-2.514.576-3.765Z" transform="translate(-33.44 -167.302)"/>
            </g>
          </g>
          <g id="Group_39" data-name="Group 39" transform="translate(99.694 26.821)">
            <g id="Group_38" data-name="Group 38">
              <path id="Path_221" data-name="Path 221" d="M410.786,105.99l-3.41,1.988c.6,1.1,1.175,2.239,1.684,3.391l3.549-1.709C412.049,108.415,411.434,107.18,410.786,105.99Z" transform="translate(-407.376 -105.99)"/>
            </g>
          </g>
          <g id="Group_41" data-name="Group 41" transform="translate(95.583 19.975)">
            <g id="Group_40" data-name="Group 40">
              <path id="Path_222" data-name="Path 222" d="M393.65,78.934l-3.074,2.514c.758.986,1.49,2.024,2.177,3.079L396,82.266C395.255,81.124,394.464,80,393.65,78.934Z" transform="translate(-390.576 -78.934)"/>
            </g>
          </g>
          <g id="Group_43" data-name="Group 43" transform="translate(16.416 20.042)">
            <g id="Group_42" data-name="Group 42">
              <path id="Path_223" data-name="Path 223" d="M69.433,79.2c-.824,1.073-1.615,2.2-2.353,3.334l3.254,2.253c.679-1.051,1.41-2.087,2.169-3.081Z" transform="translate(-67.08 -79.198)"/>
            </g>
          </g>
          <g id="Group_45" data-name="Group 45" transform="translate(90.575 13.93)">
            <g id="Group_44" data-name="Group 44">
              <path id="Path_224" data-name="Path 224" d="M372.767,55.046l-2.655,2.976c.906.866,1.786,1.771,2.61,2.69l2.872-2.751C374.7,56.965,373.75,55.983,372.767,55.046Z" transform="translate(-370.112 -55.046)"/>
            </g>
          </g>
          <g id="Group_47" data-name="Group 47" transform="translate(12.506 26.888)">
            <g id="Group_46" data-name="Group 46">
              <path id="Path_225" data-name="Path 225" d="M52.923,106.254c-.646,1.188-1.259,2.427-1.819,3.68l3.551,1.7c.519-1.158,1.085-2.3,1.678-3.393Z" transform="translate(-51.104 -106.254)"/>
            </g>
          </g>
          <g id="Group_49" data-name="Group 49" transform="translate(9.74 34.388)">
            <g id="Group_48" data-name="Group 48">
              <path id="Path_226" data-name="Path 226" d="M41.035,135.894c-.464,1.3-.879,2.617-1.235,3.929l3.767,1.1c.331-1.215.715-2.429,1.143-3.628Z" transform="translate(-39.8 -135.894)"/>
            </g>
          </g>
          <g id="Group_51" data-name="Group 51" transform="translate(21.361 13.979)">
            <g id="Group_50" data-name="Group 50">
              <path id="Path_227" data-name="Path 227" d="M90.111,55.238c-.979.929-1.923,1.911-2.823,2.919L90.164,60.9c.822-.927,1.707-1.83,2.6-2.692Z" transform="translate(-87.288 -55.238)"/>
            </g>
          </g>
          <g id="Group_53" data-name="Group 53" transform="translate(102.796 34.305)">
            <g id="Group_52" data-name="Group 52">
              <path id="Path_228" data-name="Path 228" d="M423.719,135.566l-3.671,1.407c.429,1.192.814,2.411,1.147,3.624l3.767-1.107C424.6,138.175,424.179,136.858,423.719,135.566Z" transform="translate(-420.048 -135.566)"/>
            </g>
          </g>
          <g id="Group_55" data-name="Group 55" transform="translate(41.092 1.975)">
            <g id="Group_54" data-name="Group 54">
              <path id="Path_229" data-name="Path 229" d="M171.706,7.8c-1.284.377-2.563.81-3.794,1.277l1.357,3.8c1.137-.433,2.318-.83,3.5-1.178Z" transform="translate(-167.912 -7.798)"/>
            </g>
          </g>
          <g id="Group_57" data-name="Group 57" transform="translate(48.774 0.367)">
            <g id="Group_56" data-name="Group 56">
              <path id="Path_230" data-name="Path 230" d="M203.247,1.446c-1.308.16-2.635.377-3.943.642l.758,3.974c1.21-.247,2.435-.449,3.643-.6Z" transform="translate(-199.304 -1.446)"/>
            </g>
          </g>
          <g id="Group_59" data-name="Group 59" transform="translate(56.698 0.002)">
            <g id="Group_58" data-name="Group 58">
              <path id="Path_231" data-name="Path 231" d="M231.68.041l.149,4.049c1.222-.045,2.467-.049,3.688,0l.157-4.049C234.348-.013,233.005-.009,231.68.041Z" transform="translate(-231.68 -0.002)"/>
            </g>
          </g>
          <g id="Group_61" data-name="Group 61" transform="translate(33.848 4.831)">
            <g id="Group_60" data-name="Group 60">
              <path id="Path_232" data-name="Path 232" d="M141.867,19.086c-1.2.573-2.4,1.215-3.555,1.879l1.919,3.53c1.069-.621,2.171-1.215,3.281-1.735Z" transform="translate(-138.312 -19.086)"/>
            </g>
          </g>
          <g id="Group_63" data-name="Group 63" transform="translate(64.215 0.355)">
            <g id="Group_62" data-name="Group 62">
              <path id="Path_233" data-name="Path 233" d="M262.848,1.4l-.448,4.02c1.2.144,2.43.342,3.643.587l.75-3.974C265.48,1.766,264.162,1.554,262.848,1.4Z" transform="translate(-262.4 -1.398)"/>
            </g>
          </g>
          <g id="Group_65" data-name="Group 65" transform="translate(84.784 8.823)">
            <g id="Group_64" data-name="Group 64">
              <path id="Path_234" data-name="Path 234" d="M348.619,34.862l-2.171,3.368c1.01.7,2.013,1.449,2.984,2.239l2.42-3.182C350.8,36.433,349.714,35.615,348.619,34.862Z" transform="translate(-346.448 -34.862)"/>
            </g>
          </g>
          <g id="Group_67" data-name="Group 67" transform="translate(71.442 1.948)">
            <g id="Group_66" data-name="Group 66">
              <path id="Path_235" data-name="Path 235" d="M292.979,7.694l-1.051,3.9c1.175.34,2.349.733,3.5,1.17l1.349-3.8C295.536,8.488,294.258,8.062,292.979,7.694Z" transform="translate(-291.928 -7.694)"/>
            </g>
          </g>
          <g id="Group_69" data-name="Group 69" transform="translate(27.221 8.872)">
            <g id="Group_68" data-name="Group 68">
              <path id="Path_236" data-name="Path 236" d="M114.456,35.054c-1.108.771-2.195,1.587-3.224,2.429l2.424,3.178c.951-.777,1.958-1.532,2.984-2.247Z" transform="translate(-111.232 -35.054)"/>
            </g>
          </g>
          <g id="Group_71" data-name="Group 71" transform="translate(78.351 4.795)">
            <g id="Group_70" data-name="Group 70">
              <path id="Path_237" data-name="Path 237" d="M321.8,18.942l-1.637,3.676c1.106.528,2.214,1.111,3.289,1.729l1.909-3.534C324.2,20.144,323,19.513,321.8,18.942Z" transform="translate(-320.16 -18.942)"/>
            </g>
          </g>
          <g id="Group_73" data-name="Group 73" transform="translate(35.24 24.293)">
            <g id="Group_72" data-name="Group 72">
              <path id="Path_238" data-name="Path 238" d="M151.831,96a8.1,8.1,0,1,0,7.831,8.1A7.968,7.968,0,0,0,151.831,96Zm0,12.146a4.051,4.051,0,1,1,3.916-4.049A3.984,3.984,0,0,1,151.831,108.144Z" transform="translate(-144 -95.998)"/>
            </g>
          </g>
        </g>
      </g>
    </g>
  </g>
</svg>
