<svg xmlns="http://www.w3.org/2000/svg" width="674" height="238" viewBox="0 0 674 238">
  <g id="im5" transform="translate(-2038 -2522)">
    <rect id="Rectangle_21" data-name="Rectangle 21" width="674" height="238" rx="50" transform="translate(2038 2522)" fill="#efa834"/>
    <text id="Cariere_de_Succes_" data-name="Cariere de Succes
" transform="translate(2345 2587)" font-size="42" font-family="Montserrat-Regular, Montserrat"><tspan x="17.489" y="41">Cariere de </tspan><tspan x="52.034" y="93">Succes</tspan></text>
    <path id="graph-up" d="M0,0H7.342V110.817H117.467V118.2H0ZM108.782,23a3.71,3.71,0,0,1,.514,5.2L76.258,68.832a3.656,3.656,0,0,1-5.433.273L51.832,49.993,24.991,87.131a3.655,3.655,0,0,1-5.045.7,3.709,3.709,0,0,1-.887-5.047L48.426,42.155a3.656,3.656,0,0,1,5.565-.443L73.145,60.993l30.468-37.478A3.655,3.655,0,0,1,108.782,23Z" transform="translate(2137 2581.625)" fill-rule="evenodd"/>
  </g>
</svg>
