<svg xmlns="http://www.w3.org/2000/svg" width="674" height="238" viewBox="0 0 674 238">
  <g id="im6" transform="translate(-2038 -2784)">
    <g id="Group_176" data-name="Group 176">
      <path id="Path_274" data-name="Path 274" d="M50,0H624a50,50,0,0,1,50,50V188a50,50,0,0,1-50,50H50A50,50,0,0,1,0,188V50A50,50,0,0,1,50,0Z" transform="translate(2038 2784)" fill="#efa834"/>
      <text id="How_to_start-up_data_" data-name="How to start-up
*data*" transform="translate(2419 2817)" font-size="42" font-family="SegoeUI-Bold, Segoe UI" font-weight="700"><tspan x="54.107" y="45">How to </tspan><tspan x="47.381" y="101">start-up</tspan><tspan x="64.454" y="157">*data*</tspan></text>
      <g id="career" transform="translate(2137 2809.126)">
        <g id="Group_78" data-name="Group 78" transform="translate(66.208 64.972)">
          <g id="Group_77" data-name="Group 77">
            <path id="Path_239" data-name="Path 239" d="M334.448,209.441l-10-5.575a2.548,2.548,0,0,1-1.163-2.244v-3.444a20.282,20.282,0,0,0,5.518-14.322v-4.849a4.749,4.749,0,0,0,1.839-3.91v-.471c0-10.1-6.547-18.31-14.595-18.31H312.37c-8.048,0-14.595,8.214-14.595,18.31v4.27a5.035,5.035,0,0,0,1.373,3.627,3.407,3.407,0,0,0,.466.379v.953a20.282,20.282,0,0,0,5.517,14.321v3.445a2.549,2.549,0,0,1-1.162,2.244l-10,5.575c-3.275,1.826-5.391,5.911-5.391,10.406v28.611a1.765,1.765,0,1,0,3.441,0V219.847c0-.25.014-.5.035-.743l4.607,5.78a5.4,5.4,0,0,1,1.112,3.368v20.205a1.765,1.765,0,1,0,3.441,0V228.253a10.3,10.3,0,0,0-2.12-6.421l-5.493-6.891a5.819,5.819,0,0,1,1.764-1.555l9.83-5.481,7.29,9.146v31.407a1.765,1.765,0,1,0,3.441,0V217.051l7.29-9.146,9.83,5.481a5.818,5.818,0,0,1,1.764,1.555l-5.493,6.891a10.3,10.3,0,0,0-2.12,6.421v20.205a1.765,1.765,0,1,0,3.441,0V228.253a5.4,5.4,0,0,1,1.112-3.368l4.607-5.78c.021.245.035.492.035.742v28.611a1.765,1.765,0,1,0,3.441,0V219.847C339.839,215.352,337.723,211.267,334.448,209.441ZM314.21,213.1l-6.4-8.025a8.1,8.1,0,0,0,.761-3.457v-.878a11.884,11.884,0,0,0,11.271,0v.878a8.1,8.1,0,0,0,.761,3.457Zm0-15.257c-6.15,0-11.153-6.277-11.153-13.992v-.971a10.25,10.25,0,0,0,3.125-2.545,2.562,2.562,0,0,0,.1-3.05,1.488,1.488,0,0,0-2.432-.122,6.069,6.069,0,0,1-2.555,1.914.229.229,0,0,1-.046.011.536.536,0,0,1-.029-.2v-4.27c0-7.715,5-13.992,11.153-13.992h3.678c6.15,0,11.153,6.277,11.153,13.992v.471a.14.14,0,0,1-.078.142c-10.3,2.553-15.472-2.259-17.216-4.446a1.487,1.487,0,0,0-2.433,0,2.563,2.563,0,0,0,0,3.053c5.343,6.7,13.14,6.824,17.887,6.109v3.9C325.363,191.57,320.359,197.847,314.209,197.847Z" transform="translate(-288.58 -156.317)"/>
          </g>
        </g>
        <g id="Group_80" data-name="Group 80" transform="translate(29.426 81.122)">
          <g id="Group_79" data-name="Group 79">
            <path id="Path_240" data-name="Path 240" d="M152.049,212.429h-3.678c-6.019,0-10.916,6.144-10.916,13.7v4.614a1.977,1.977,0,0,0,1.721,2.159c.014,0,.056,0,.118,0v2.46a15.361,15.361,0,0,0,3.678,10.239v3.059a2.565,2.565,0,0,1-1.082,2.2l-9.63,6.04a9.483,9.483,0,0,0-4,8.122V288.42a1.765,1.765,0,1,0,3.441,0V265.011a5.972,5.972,0,0,1,.126-1.216l2.677,3.359a5.4,5.4,0,0,1,1.112,3.368v17.9a1.765,1.765,0,1,0,3.441,0v-17.9a10.3,10.3,0,0,0-2.12-6.421l-2.826-3.546,9.318-5.845a5.458,5.458,0,0,0,.853-.668l4.207,5.278v29.1a1.765,1.765,0,1,0,3.441,0v-29.1l4.207-5.278a5.429,5.429,0,0,0,.853.668l1.645,1.032a1.435,1.435,0,0,0,.768.228,1.725,1.725,0,0,0,1.54-1.194,2.439,2.439,0,0,0-.77-2.9l-1.644-1.032a2.565,2.565,0,0,1-1.082-2.2v-3.059a15.362,15.362,0,0,0,3.678-10.239V232.9h.118a1.977,1.977,0,0,0,1.721-2.159v-4.614C162.965,218.573,158.068,212.429,152.049,212.429Zm-1.839,42.944-3.976-4.988a8.487,8.487,0,0,0,.18-1.732v-.46a8.85,8.85,0,0,0,7.593,0v.46a8.467,8.467,0,0,0,.18,1.732Zm7.475-20.019c0,5.171-3.353,9.378-7.475,9.378s-7.475-4.207-7.475-9.378v-3.48a14.392,14.392,0,0,0,4.038-3.092,26.2,26.2,0,0,0,10.912,3.892Zm1.839-6.831a22.763,22.763,0,0,1-12.038-4.194,1.48,1.48,0,0,0-.954-.363,1.563,1.563,0,0,0-1.217.632,11.244,11.244,0,0,1-4.419,3.538v-2.012h0c0-5.171,3.353-9.378,7.475-9.378h3.678c4.122,0,7.475,4.207,7.475,9.378Z" transform="translate(-128.259 -212.429)"/>
          </g>
        </g>
        <g id="Group_82" data-name="Group 82" transform="translate(0 99.58)">
          <g id="Group_81" data-name="Group 81">
            <path id="Path_241" data-name="Path 241" d="M25.511,292.56v-4.614c0-6.279-4.072-11.388-9.077-11.388-4.979,0-9.033,5.056-9.075,11.29,0,.008,0,.016,0,.024,0,.025,0,.049,0,.074v4.615a12.514,12.514,0,0,0,3.678,9.148v3.27a.155.155,0,0,1-.065.133L2.984,310.12A7.074,7.074,0,0,0,0,316.178v17.913a1.977,1.977,0,0,0,1.721,2.159,1.977,1.977,0,0,0,1.721-2.159V316.178a2.566,2.566,0,0,1,1.082-2.2l5.44-3.412,4.749,5.958v17.564a1.977,1.977,0,0,0,1.721,2.159,1.977,1.977,0,0,0,1.721-2.159V316.527l4.75-5.959.114.072a1.436,1.436,0,0,0,.768.228,1.725,1.725,0,0,0,1.54-1.194,2.439,2.439,0,0,0-.769-2.9L21.9,305.111a.155.155,0,0,1-.066-.133v-3.27A12.514,12.514,0,0,0,25.511,292.56Zm-9.077-11.685c3.108,0,5.636,3.172,5.636,7.07v.105a56.557,56.557,0,0,1-11.109-1.789C11.564,283.174,13.789,280.875,16.434,280.875Zm0,31.7-3.285-4.122a4.935,4.935,0,0,0,1.328-3.481v-1.3a7.239,7.239,0,0,0,3.915,0v1.3a4.936,4.936,0,0,0,1.328,3.481Zm0-12.949c-3.108,0-5.636-3.172-5.636-7.07v-1.928a57.9,57.9,0,0,0,11.272,1.739v.188C22.069,296.459,19.541,299.631,16.434,299.631Z" transform="translate(0 -276.558)"/>
          </g>
        </g>
        <g id="Group_84" data-name="Group 84" transform="translate(7.356 143.419)">
          <g id="Group_83" data-name="Group 83">
            <path id="Path_242" data-name="Path 242" d="M33.785,428.865a1.977,1.977,0,0,0-1.721,2.159V442.56a1.977,1.977,0,0,0,1.721,2.159,1.977,1.977,0,0,0,1.721-2.159V431.024A1.977,1.977,0,0,0,33.785,428.865Z" transform="translate(-32.064 -428.865)"/>
          </g>
        </g>
        <g id="Group_86" data-name="Group 86" transform="translate(0.325 28.054)">
          <g id="Group_85" data-name="Group 85">
            <path id="Path_243" data-name="Path 243" d="M118.428,31.8a1.835,1.835,0,0,0-1.369-1.321l-14.7-2.4c-.942-.155-1.806.68-1.928,1.862a2.118,2.118,0,0,0,1.484,2.419l8.291,1.354L2.482,89.2a2.38,2.38,0,0,0-.938,2.817,1.765,1.765,0,0,0,1.592,1.339,1.418,1.418,0,0,0,.653-.162l107.7-55.48-5.124,8.248a2.545,2.545,0,0,0,.3,3.03,1.506,1.506,0,0,0,1.056.456,1.62,1.62,0,0,0,1.358-.832l9.114-14.673A2.616,2.616,0,0,0,118.428,31.8Z" transform="translate(-1.415 -28.054)"/>
          </g>
        </g>
      </g>
    </g>
  </g>
</svg>
