<svg xmlns="http://www.w3.org/2000/svg" viewBox="0 0 14.83 14.83"><defs><style>.cls-1{fill:#fff;}.cls-2{fill:none;stroke:#fff;stroke-linecap:round;stroke-linejoin:round;stroke-width:0.83px;}</style></defs><g id="Layer_2" data-name="Layer 2"><g id="Layer_1-2" data-name="Layer 1"><path class="cls-1" d="M5.45,4.66a.74.74,0,0,1-.79.79.75.75,0,0,1-.78-.75.79.79,0,0,1,.78-.82A.76.76,0,0,1,5.45,4.66Z"/><rect class="cls-1" x="3.88" y="5.84" width="1.57" height="5.11"/><path class="cls-1" d="M9.22,5.92a1.7,1.7,0,0,0-1.49.79h0L7.61,6H6.2c0,.43,0,.94,0,1.53V11H7.81V8.16a1.17,1.17,0,0,1,0-.39.83.83,0,0,1,.74-.63c.55,0,.79.47.79,1.1V11H11V8C11,6.59,10.2,5.92,9.22,5.92Z"/><rect class="cls-2" x="0.41" y="0.41" width="14" height="14" rx="2.61"/></g></g></svg>