<svg id="Layer_2" data-name="Layer 2" xmlns="http://www.w3.org/2000/svg" width="230" height="53.791" viewBox="0 0 230 53.791">
  <g id="logo" transform="translate(0)">
    <path id="Path_198" data-name="Path 198" d="M273.138-.014a7.979,7.979,0,0,1,6.188,1.931,7.682,7.682,0,0,1,2.615,5.837A8.073,8.073,0,0,1,265.8,7.438,7.6,7.6,0,0,1,270.2.776a6.886,6.886,0,0,1,2.937-.79Zm-4.892,5.05c-2.824,5.532,3.484,10.866,8.481,8.322a6.227,6.227,0,0,0,3.339-4.56,6.007,6.007,0,0,0-1.67-5.284,6.256,6.256,0,0,0-5.339-1.765,6.548,6.548,0,0,0-4.812,3.319Z" transform="translate(-51.941 0.067)" fill="#fff" fill-rule="evenodd"/>
    <path id="Path_199" data-name="Path 199" d="M276.554,9.187c.917,1.177,2,2.2,2.848,3.438-.925-.126-1.69.182-2.285,0-1.167-.348-1.464-2.892-3.09-2.877a19.608,19.608,0,0,0-.088,2.877H272V4.7c1.923.055,5.069-.3,5.954.964C278.719,6.777,278.075,8.95,276.554,9.187ZM273.939,8.3c2.7.648,2.865-2.869,0-2.157Z" transform="translate(-53.153 -0.931)" fill="#fff" fill-rule="evenodd"/>
    <path id="Path_200" data-name="Path 200" d="M74.839,7.14h8.642V20.464c2.261-1.581,4.434-3.54,8.368-3.564,4.707,0,7.306,2.458,8.851,6.085a22.275,22.275,0,0,1,.9,12.889,13.446,13.446,0,0,1-6.276,8.646c-3.219,1.746-8.7,1.581-11.82-.719-.282.34-.233,1-.491,1.359H74.759V7.377C74.751,7.266,74.743,7.148,74.839,7.14ZM90.49,38.514C93.3,36.633,94.3,28.928,92.1,25.545c-1.7-2.632-6.646-2.276-8.634-.316V38.838C86.1,39.644,88.768,39.667,90.49,38.514Z" transform="translate(-14.62 -1.445)" fill="#fff" fill-rule="evenodd"/>
    <path id="Path_201" data-name="Path 201" d="M154.976,7.14h8.642V20.5c.3.134.6-.356.982-.64a18.028,18.028,0,0,1,3.5-2.157c3.347-1.454,7.942-.846,10.195,1.28,2.7,2.553,2.768,6.7,2.768,11.767V45.16h-8.819V35c0-3.951.571-9.373-1.955-10.566-2.108-1-5.4.095-6.687,1.359V45.16h-8.722V7.377C154.871,7.266,154.871,7.148,154.976,7.14Z" transform="translate(-30.272 -1.445)" fill="#fff" fill-rule="evenodd"/>
    <path id="Path_202" data-name="Path 202" d="M140.964,10.74c-.048,2.774.113,5.761-.08,8.408-1.046,0-1.827-.838-2.688-1.367-3.106-1.9-9.318-4.188-13.679-1.841a3.145,3.145,0,0,0-1.794,3.6c.676,2.639,5.874,2.971,8.8,3.683,3.219.79,6.59,2.1,8.481,4.007,2.342,2.371,3.074,6.686,1.875,10.321-2.148,6.5-9.487,9.1-18.346,8.408a31.723,31.723,0,0,1-10.678-2.719c.056-2.861-.1-5.927.089-8.646,1.183,0,2.1.925,3.009,1.517,3.219,2.055,9.39,4.623,14.427,2.639,1.416-.553,3.13-1.968,2.366-4.157-.949-2.75-6.96-3.161-9.945-4.007-5.407-1.509-10.291-4.236-9.656-11.854a9.109,9.109,0,0,1,2.414-5.6c2.35-2.639,6.437-4.52,11.329-4.8a33.116,33.116,0,0,1,14.073,2.41Z" transform="translate(-22.062 -1.687)" fill="#fff" fill-rule="evenodd"/>
    <path id="Path_203" data-name="Path 203" d="M4.325,9.16h17.7V22.595c0,6.646.974,15.118-1.955,18.966C16.459,46.3,8.123,47.006.02,45.4V38.06c1.3-.126,2.164.561,3.42.877,3.017.79,6.872.324,8.24-1.581,1.529-2.165,1.054-6.607,1.054-10.273v-11.2c-2.663-.19-5.633,0-8.473-.079V9.4C4.236,9.286,4.228,9.176,4.325,9.16Z" transform="translate(-0.02 -1.868)" fill="#fff" fill-rule="evenodd"/>
    <path id="Path_204" data-name="Path 204" d="M46.229,19.476c7.338-.5,11.981,2.545,14.186,6.891,3.106,6.156,1.561,14.47-2.124,18.247-3.935,4.078-12.271,5.421-18.257,2.371-4.989-2.513-8-8.511-6.679-16.493a12.57,12.57,0,0,1,4.072-7.76A14.352,14.352,0,0,1,46.229,19.476Zm-1.3,6.646c-3.6,2.007-3.967,12.518-.652,15.292a5.747,5.747,0,0,0,6.767-.158c1.529-1.415,2.036-4.244,2.036-7.112,0-4.686-1.263-9.025-6.2-8.487a4.965,4.965,0,0,0-1.955.466Z" transform="translate(-6.471 -4.021)" fill="#fff" fill-rule="evenodd"/>
    <path id="Path_205" data-name="Path 205" d="M205.984,19.476c9.471-.64,15.353,4.481,15.731,13.292.418,9.7-4.224,15.165-13.2,15.766-9.535.648-15.119-4.5-15.65-13.205-.282-4.615.877-8.638,3.017-11.285S201.566,19.776,205.984,19.476Zm-1.3,6.646c-3.742,2.063-4.023,13.245-.249,15.608a5.826,5.826,0,0,0,6.035-.237c1.875-1.438,2.333-4.8,2.277-8.084-.064-4.544-1.473-8.274-6.107-7.768a4.9,4.9,0,0,0-1.955.482Z" transform="translate(-37.684 -4.021)" fill="#fff" fill-rule="evenodd"/>
    <path id="Path_206" data-name="Path 206" d="M243.2,46.461V57.818h-8.8V20.288h8.8v2.639c2.245-1.533,4.289-3.161,7.99-3.446,9.012-.688,12.158,10.1,10.187,18.816a13.232,13.232,0,0,1-6.276,8.693,12.514,12.514,0,0,1-11.9-.529Zm7.58-5.84c2.486-2.292,2.913-9.855.8-12.731a4.971,4.971,0,0,0-4.385-1.683c-1.167.087-3.685.727-4.023,1.581s0,2.276,0,3.359V41.42C246.148,42.376,249.125,42.154,250.783,40.621Z" transform="translate(-45.807 -4.027)" fill="#fff" fill-rule="evenodd"/>
  </g>
</svg>
