<svg id="Layer_1" data-name="Layer 1" xmlns="http://www.w3.org/2000/svg" xmlns:xlink="http://www.w3.org/1999/xlink" viewBox="0 0 244.51 263.55"><defs><style>.cls-1{fill:none;}.cls-2{clip-path:url(#clip-path);}.cls-3{fill:#0071b9;}.cls-4{fill:#ffa615;}.cls-5{fill:#75bf1e;}</style><clipPath id="clip-path" transform="translate(-109.33 -40.57)"><rect class="cls-1" x="53.55" y="-56.25" width="614.07" height="359.65" transform="translate(-0.29 0.85) rotate(-0.14)"/></clipPath></defs><g class="cls-2"><path class="cls-3" d="M307.59,212l-20-11.46-52.14.12-19.94,11.56c19.18,33.14,76.43,87.35,138.32,91.91-21.59-12-56-55.35-46.25-92.13" transform="translate(-109.33 -40.57)"/><path class="cls-4" d="M264.7,149.73h0l-.39-.67ZM321.28,40.57c.38,24.72-19.91,76.18-56.65,86.12l.07,23,26.17,45.1,20,11.49C330,173.13,348.29,96.46,321.28,40.57" transform="translate(-109.33 -40.57)"/><path class="cls-5" d="M232.16,195h0l-.39.68Zm25.93-68.26c-38.29,0-113.87,22.5-148.76,73.84,21.22-12.69,75.94-20.85,102.91,6L232.16,195l26-45.21Z" transform="translate(-109.33 -40.57)"/><path class="cls-3" d="M249.26,181.77c0-16,24.34-16,24.44-.06s-24.34,16-24.44.06" transform="translate(-109.33 -40.57)"/></g></svg>