<svg xmlns="http://www.w3.org/2000/svg" width="532.762" height="202.445" viewBox="0 0 532.762 202.445">
  <g id="logo" transform="translate(-25.988 -28.321)">
    <g id="Group_93" data-name="Group 93" transform="translate(31.521 28.321)">
      <path id="Path_246" data-name="Path 246" d="M311.618,28.42c11.422-1.2,20.129,8.754,20.177,21.6.054,12.961-8.132,22.271-18.493,22.271-10.723,0-19.041-9.688-18.5-23.159.389-9.574,4.764-15.483,10.092-18.708C306.9,29.209,308.311,28.769,311.618,28.42Zm-11.208,14.03c-6.488,15.357,7.982,30.229,19.43,23.159A17.4,17.4,0,0,0,327.5,52.915c1.31-12.291-6.684-21.016-16.064-19.6C305.588,34.205,301.75,39.27,300.409,42.449Z" transform="translate(195.434 -28.321)" fill="#fff" fill-rule="evenodd"/>
      <path id="Path_247" data-name="Path 247" d="M311.432,45.512c2.114,3.271,4.579,6.122,6.542,9.574-2.125-.361-3.868.5-5.234,0-2.674-.98-3.36-8.048-7.1-8.015-.437,2.227-.065,5.419-.192,8.015h-4.482V33.041c4.4.138,11.607-.846,13.639,2.673C316.4,38.81,314.924,44.85,311.432,45.512Zm-5.979-2.449c6.2,1.789,6.564-8,0-6.015Z" transform="translate(200.664 -22.699)" fill="#fff" fill-rule="evenodd"/>
      <path id="Path_248" data-name="Path 248" d="M103.937,35.457h19.8V72.422c5.2-4.3,10.175-9.73,19.244-9.8,10.8-.079,16.749,6.837,20.364,16.923,3.314,9.242,4.439,23.915,2.055,35.857-2.073,10.394-7.392,19.427-14.386,24.045-7.353,4.86-19.938,4.37-27.09-2-.633.954-.526,2.785-1.12,3.783H103.748V36.125C103.734,35.809,103.719,35.5,103.937,35.457Zm35.871,87.291c6.45-5.243,8.731-26.668,3.737-36.072-3.9-7.338-15.244-6.34-19.8-.89V123.64C129.752,125.887,135.872,125.949,139.807,122.748Z" transform="translate(34.13 -19.771)" fill="#fff" fill-rule="evenodd"/>
      <path id="Path_249" data-name="Path 249" d="M184.061,35.457h19.807V72.648c.671.361,1.387-1,2.243-1.783a41.379,41.379,0,0,1,8.032-6.015c7.667-4.038,18.189-2.354,23.353,3.563,6.2,7.107,6.354,18.648,6.354,32.735v40.08H223.671V112.952c0-11.058,1.3-26.074-4.482-29.4-4.827-2.765-12.37.284-15.321,3.79v53.883H183.873V36.125C183.86,35.809,183.844,35.5,184.061,35.457Z" transform="translate(101.785 -19.771)" fill="#fff" fill-rule="evenodd"/>
      <path id="Path_250" data-name="Path 250" d="M206.3,43.433c-.122,7.72.251,16.035-.184,23.386-2.4.119-4.187-2.315-6.168-3.79-7.123-5.3-21.354-11.66-31.387-5.12a9.237,9.237,0,0,0-4.109,10.02c1.551,7.342,13.466,8.25,20.179,10.244,7.444,2.214,15.094,5.843,19.427,11.134,5.382,6.569,7.06,18.6,4.3,28.725-4.923,18.055-21.741,25.309-42.037,23.386a62.5,62.5,0,0,1-24.475-7.578c.125-7.938-.249-16.476.188-24.045,2.724-.026,4.814,2.585,6.911,4.234,7.294,5.716,21.514,12.854,33.069,7.342,3.233-1.537,7.162-5.472,5.417-11.576-2.184-7.65-15.948-8.815-22.793-11.137-12.405-4.21-23.6-11.783-22.23-32.955a28.137,28.137,0,0,1,5.6-15.588c5.395-7.334,14.853-12.583,25.97-13.361C187.043,35.84,197.086,39.273,206.3,43.433Z" transform="translate(66.28 -18.394)" fill="#fff" fill-rule="evenodd"/>
      <path id="Path_251" data-name="Path 251" d="M38.89,37.483H79.433V74.894c0,18.486,2.234,42.052-4.485,52.779-8.272,13.205-27.381,15.14-45.96,10.688V117.873c2.968-.345,4.967,1.565,7.848,2.447,6.911,2.128,15.743.886,18.87-4.449,3.521-6.015,2.427-18.369,2.427-28.508V56.188c-6.1-.519-13.014-.075-19.428-.222V38.153C38.687,37.837,38.673,37.52,38.89,37.483Z" transform="translate(-28.988 -17.343)" fill="#fff" fill-rule="evenodd"/>
      <path id="Path_252" data-name="Path 252" d="M92.26,47.9c16.815-1.389,27.463,7.061,32.509,19.15,7.123,17.063,3.508,40.267-4.858,50.772-9.028,11.339-28.136,15.072-41.849,6.678-11.442-7-18.344-23.678-15.321-45.87,1.306-9.58,4.467-16.347,9.342-21.6C77.166,51.549,83.745,48.6,92.26,47.9ZM89.273,66.379c-8.276,5.571-9.091,34.826-1.5,42.533,4.155,4.219,12,3.491,15.507-.444,3.287-3.684,4.67-11.79,4.67-19.82,0-13.036-2.9-25.116-14.2-23.606C91.6,65.332,90.5,65.554,89.273,66.379Z" transform="translate(-1.088 -5.042)" fill="#fff" fill-rule="evenodd"/>
      <path id="Path_253" data-name="Path 253" d="M251.983,47.9c21.708-1.794,35.192,12.453,36.055,36.967.955,27-9.67,42.175-30.264,43.865-21.859,1.8-34.646-12.537-35.873-36.743-.647-12.843,2.007-24.019,6.913-31.4C233.79,53.109,241.863,48.734,251.983,47.9ZM248.995,66.38c-8.565,5.742-9.3,36.831-.561,43.423,4.288,3.236,10.662,2.275,13.822-.666,4.3-4,5.352-13.377,5.231-22.5-.16-12.643-3.394-23.019-14.01-21.6A9.577,9.577,0,0,0,248.995,66.38Z" transform="translate(133.819 -5.043)" fill="#fff" fill-rule="evenodd"/>
      <path id="Path_254" data-name="Path 254" d="M283.567,122.905v31.623H263.39V50.088h20.177v7.347c5.146-4.265,9.825-8.787,18.305-9.571,20.664-1.913,27.868,28.083,23.355,52.331-1.975,10.624-7.389,19.644-14.386,24.269C303.44,129.366,291.73,129.225,283.567,122.905Zm17.374-16.252c5.694-6.38,6.675-27.417,1.868-35.408a10.5,10.5,0,0,0-10.085-4.678c-2.669.233-8.434,2.009-9.157,4.456-.649,2.187,0,6.336,0,9.349v28.506C290.358,111.544,297.133,110.92,300.941,106.653Z" transform="translate(168.932 -5.008)" fill="#fff" fill-rule="evenodd"/>
    </g>
    <text id="Eveniment_na_ional_de_carieră" data-name="Eveniment național de carieră" transform="translate(25.988 221.766)" fill="#fff" font-size="39" font-family="Tahoma"><tspan x="0" y="0">Eveniment național de carieră</tspan></text>
  </g>
</svg>
